# xmcd CD database file
#
# Track frame offsets:
#	150
#	38419
#	68909
#	95714
#	123728
#	158760
#	189292
#	221089
#	250993
#	279123
#
# Disc length: 4226 seconds
#
# Revision: 0
# Processed by: cddbd v1.5.2PL0 Copyright (c) Steve Scherf et al.
# Submitted via: CDex 1.51
#
DISCID=8910800a
DTITLE=Jan Garbarek - Rites
DYEAR=1900
DGENRE=Jazz
TTITLE0=Rites
TTITLE1=Where the rivers meet
TTITLE2=Vast plain, clouds
TTITLE3=So mild the wind, so meek the water
TTITLE4=Song, tread lightly
TTITLE5=It's ok to listen to the gray voice
TTITLE6=Her wild ways
TTITLE7=One Ying for every Yang
TTITLE8=Pan
TTITLE9=Last rite
EXTD=
EXTT0=
EXTT1=
EXTT2=
EXTT3=
EXTT4=
EXTT5=
EXTT6=
EXTT7=
EXTT8=
EXTT9=
PLAYORDER=
